<svg width="121" height="136" viewBox="0 0 121 136" fill="none" xmlns="http://www.w3.org/2000/svg">
<path d="M37.742 20.508C39.3967 20.712 40.6207 21.2447 41.414 22.106C42.23 22.9447 42.638 23.9873 42.638 25.234C42.638 26.4807 42.1733 27.6593 41.244 28.77C40.3373 29.8807 39.17 30.742 37.742 31.354C37.1073 31.6033 36.2687 31.7847 35.226 31.898C34.206 32.0113 33.152 32.068 32.064 32.068C30.2507 32.068 28.392 31.898 26.488 31.558C26.148 31.49 25.7853 31.32 25.4 31.048C25.0373 30.776 24.856 30.3793 24.856 29.858C24.8333 27.7727 24.754 24.8713 24.618 21.154L24.584 19.284C24.4933 16.3827 24.448 14.1047 24.448 12.45C24.448 12.1553 24.618 11.8153 24.958 11.43C25.3207 11.022 25.7513 10.7953 26.25 10.75C26.5447 10.75 26.828 10.7387 27.1 10.716C29.6613 10.4667 31.3727 10.342 32.234 10.342C33.934 10.342 35.43 10.512 36.722 10.852C38.0367 11.1693 39.1247 11.7587 39.986 12.62C40.3033 12.9827 40.564 13.4473 40.768 14.014C40.972 14.558 41.074 15.0907 41.074 15.612C41.0967 16.7227 40.802 17.7427 40.19 18.672C39.6007 19.6013 38.7847 20.2133 37.742 20.508ZM32.438 13.232C31.6673 13.232 30.8627 13.2773 30.024 13.368C29.208 13.4587 28.5167 13.572 27.95 13.708L28.154 20.134L29.378 20.1C31.35 19.896 32.8007 19.726 33.73 19.59C34.3193 19.454 34.8973 19.1933 35.464 18.808C36.0307 18.4 36.4953 17.9807 36.858 17.55C37.2433 17.0967 37.436 16.7567 37.436 16.53C37.436 16.19 37.368 15.85 37.232 15.51C37.096 15.1473 36.9487 14.8867 36.79 14.728C36.178 14.1387 35.5547 13.742 34.92 13.538C34.2853 13.334 33.458 13.232 32.438 13.232ZM28.256 29.076C29.412 29.2347 30.5113 29.314 31.554 29.314C33.8433 29.314 35.6453 29.0193 36.96 28.43C38.2973 27.818 38.966 26.662 38.966 24.962C38.966 24.282 38.456 23.7153 37.436 23.262C36.416 22.8087 35.3167 22.582 34.138 22.582C33.3447 22.582 32.336 22.6727 31.112 22.854C30.1373 22.99 29.1853 23.0807 28.256 23.126C28.3013 24.486 28.324 25.3473 28.324 25.71C28.324 26.4127 28.3127 26.9453 28.29 27.308L28.256 29.076ZM55.7785 10.376C57.2971 10.376 58.6798 10.5687 59.9265 10.954C61.1731 11.3167 62.1931 11.8607 62.9865 12.586C64.4145 13.878 65.4118 15.2947 65.9785 16.836C66.5678 18.3547 66.8625 20.304 66.8625 22.684C66.8625 23.1827 66.7945 23.636 66.6585 24.044C66.5451 24.452 66.3525 24.9733 66.0805 25.608C65.7405 26.3107 65.5365 26.866 65.4685 27.274C65.0151 28.0673 64.2671 28.8267 63.2245 29.552C62.2045 30.2773 61.0938 30.8667 59.8925 31.32C58.6911 31.7733 57.6371 32 56.7305 32C52.3558 32 49.2391 30.504 47.3805 27.512C46.8591 26.6733 46.4511 25.8007 46.1565 24.894C45.8845 23.9873 45.7485 23.1033 45.7485 22.242C45.7485 19.93 46.1565 17.924 46.9725 16.224C47.8111 14.5013 48.9671 13.164 50.4405 12.212C51.3245 11.6907 52.2425 11.26 53.1945 10.92C54.1691 10.5573 55.0305 10.376 55.7785 10.376ZM49.2845 22.344C49.2845 23.568 49.5565 24.5767 50.1005 25.37C50.6671 26.1633 51.5285 27.0247 52.6845 27.954C53.6365 28.3167 54.2825 28.5547 54.6225 28.668C54.9625 28.7587 55.3478 28.804 55.7785 28.804C58.0678 28.804 59.8925 28.1807 61.2525 26.934C62.6125 25.6873 63.2925 23.976 63.2925 21.8C63.2925 20.0773 63.0998 18.7173 62.7145 17.72C62.3291 16.7227 61.6378 15.8273 60.6405 15.034C60.1191 14.6033 59.4505 14.286 58.6345 14.082C57.8411 13.878 56.9798 13.776 56.0505 13.776C54.6451 13.776 53.4325 14.1953 52.4125 15.034C51.3925 15.85 50.6105 16.9153 50.0665 18.23C49.5451 19.5447 49.2845 20.916 49.2845 22.344ZM93.2672 12.212C93.2672 13.572 93.2219 15.476 93.1312 17.924C93.1085 18.5133 93.0859 19.2273 93.0632 20.066C93.0405 20.882 93.0292 21.834 93.0292 22.922C93.0292 26.4807 93.2219 29.0307 93.6072 30.572C93.5845 31.1387 93.3692 31.5467 92.9612 31.796C92.5532 32.0227 92.1339 32.136 91.7032 32.136C90.8192 32.136 90.2299 31.8187 89.9352 31.184C89.6632 30.5267 89.5272 29.6087 89.5272 28.43C89.5272 24.0553 89.5952 20.0093 89.7312 16.292C89.3005 17.1533 88.8925 18.1053 88.5072 19.148C88.1445 20.168 87.6572 21.596 87.0452 23.432C86.4105 25.4267 85.8665 27.002 85.4132 28.158C84.9825 29.314 84.5292 30.2093 84.0532 30.844C83.9172 30.912 83.6452 31.048 83.2372 31.252C82.8519 31.4333 82.5119 31.524 82.2172 31.524C81.7412 31.524 81.4012 31.4447 81.1972 31.286C80.9932 31.1273 80.8119 30.9007 80.6532 30.606C80.4945 30.3113 80.3585 30.0733 80.2452 29.892C79.8825 29.348 79.4179 28.4527 78.8512 27.206C78.2845 25.9593 77.7632 24.656 77.2872 23.296C77.1059 22.82 76.9359 22.3667 76.7772 21.936C76.6412 21.4827 76.5052 21.0633 76.3692 20.678C76.0972 19.862 75.8252 19.1027 75.5532 18.4C75.3039 17.6747 75.0885 17.1647 74.9072 16.87C74.9072 18.0713 74.8732 19.2727 74.8052 20.474C74.7599 21.9247 74.7372 22.9673 74.7372 23.602C74.7372 24.0553 74.7599 24.6673 74.8052 25.438C74.9412 27.7953 75.0092 29.348 75.0092 30.096C75.0092 30.64 74.8732 31.1047 74.6012 31.49C74.3292 31.8753 73.9099 32.068 73.3432 32.068C72.7312 32.068 72.2325 31.9547 71.8472 31.728C71.4845 31.4787 71.2919 31.116 71.2692 30.64C71.2919 30.2547 71.3032 29.6313 71.3032 28.77C71.3032 27.0247 71.2352 24.248 71.0992 20.44L71.0652 19.216C71.0652 18.3547 71.1105 17.1307 71.2012 15.544C71.2239 15.1587 71.2465 14.7053 71.2692 14.184C71.2919 13.6627 71.3032 13.096 71.3032 12.484C71.3032 11.7813 71.5412 11.2713 72.0172 10.954C72.4932 10.614 73.1052 10.444 73.8532 10.444C74.3065 10.444 74.7599 10.5573 75.2132 10.784C75.6892 11.0107 76.0405 11.3393 76.2672 11.77C76.7205 12.6993 77.1739 13.7987 77.6272 15.068C78.0805 16.3147 78.6925 18.094 79.4632 20.406C80.1885 22.6047 80.7665 24.282 81.1972 25.438C81.6279 26.5713 81.9905 27.342 82.2852 27.75L83.0672 25.438C85.6285 17.618 87.3512 12.994 88.2352 11.566C88.4392 11.294 88.7905 11.056 89.2892 10.852C89.8105 10.6253 90.2979 10.512 90.7512 10.512C91.0912 10.512 91.5899 10.7273 92.2472 11.158C92.9272 11.566 93.2672 11.9173 93.2672 12.212Z" fill="#005EFF" fill-opacity="0.5"/>
<path d="M31.714 121.846C31.714 122.911 31.4647 123.829 30.966 124.6C30.49 125.348 29.6967 126.039 28.586 126.674C27.838 127.127 26.9653 127.467 25.968 127.694C24.9707 127.921 23.962 128.034 22.942 128.034C21.8993 128.034 20.6073 127.694 19.066 127.014C17.9553 126.47 17.0713 125.824 16.414 125.076C15.7793 124.328 15.462 123.512 15.462 122.628C15.462 122.016 15.598 121.574 15.87 121.302C16.142 121.007 16.584 120.86 17.196 120.86C17.5133 120.86 17.842 120.996 18.182 121.268C18.522 121.517 18.726 121.767 18.794 122.016C19.1113 122.945 19.6667 123.659 20.46 124.158C21.2533 124.634 22.2393 124.872 23.418 124.872C24.778 124.872 25.9113 124.623 26.818 124.124C27.7473 123.625 28.212 122.957 28.212 122.118C28.212 121.302 27.7133 120.577 26.716 119.942C25.7187 119.307 24.6987 118.865 23.656 118.616C22.16 118.208 20.834 117.721 19.678 117.154C18.4767 116.565 17.5813 115.839 16.992 114.978C16.4027 114.117 16.108 113.21 16.108 112.258C16.108 111.374 16.414 110.479 17.026 109.572C17.638 108.643 18.3633 107.974 19.202 107.566C19.6553 107.339 20.426 107.101 21.514 106.852C22.6247 106.58 23.4293 106.444 23.928 106.444C24.5853 106.444 25.3107 106.523 26.104 106.682C26.8973 106.841 27.5433 107.067 28.042 107.362C29.0393 107.929 29.776 108.439 30.252 108.892C30.728 109.345 30.966 109.912 30.966 110.592C30.966 111 30.8073 111.363 30.49 111.68C30.1953 111.997 29.674 112.156 28.926 112.156C28.7447 112.156 28.5633 112.077 28.382 111.918C28.2007 111.759 27.974 111.521 27.702 111.204C27.3393 110.728 26.988 110.411 26.648 110.252C26.308 110.139 25.8093 110.014 25.152 109.878C24.5173 109.742 23.9507 109.674 23.452 109.674C22.908 109.674 22.3413 109.787 21.752 110.014C21.1627 110.241 20.664 110.569 20.256 111C19.8707 111.408 19.678 111.884 19.678 112.428C19.678 112.881 19.882 113.278 20.29 113.618C20.7207 113.935 21.2307 114.196 21.82 114.4C22.5 114.672 23.2367 114.91 24.03 115.114C25.0727 115.431 25.9227 115.726 26.58 115.998C27.26 116.247 27.9173 116.565 28.552 116.95C29.6627 117.607 30.4673 118.287 30.966 118.99C31.4647 119.67 31.714 120.622 31.714 121.846ZM44.8898 106.376C46.4085 106.376 47.7911 106.569 49.0378 106.954C50.2845 107.317 51.3045 107.861 52.0978 108.586C53.5258 109.878 54.5231 111.295 55.0898 112.836C55.6791 114.355 55.9738 116.304 55.9738 118.684C55.9738 119.183 55.9058 119.636 55.7698 120.044C55.6565 120.452 55.4638 120.973 55.1918 121.608C54.8518 122.311 54.6478 122.866 54.5798 123.274C54.1265 124.067 53.3785 124.827 52.3358 125.552C51.3158 126.277 50.2051 126.867 49.0038 127.32C47.8025 127.773 46.7485 128 45.8418 128C41.4671 128 38.3505 126.504 36.4918 123.512C35.9705 122.673 35.5625 121.801 35.2678 120.894C34.9958 119.987 34.8598 119.103 34.8598 118.242C34.8598 115.93 35.2678 113.924 36.0838 112.224C36.9225 110.501 38.0785 109.164 39.5518 108.212C40.4358 107.691 41.3538 107.26 42.3058 106.92C43.2805 106.557 44.1418 106.376 44.8898 106.376ZM38.3958 118.344C38.3958 119.568 38.6678 120.577 39.2118 121.37C39.7785 122.163 40.6398 123.025 41.7958 123.954C42.7478 124.317 43.3938 124.555 43.7338 124.668C44.0738 124.759 44.4591 124.804 44.8898 124.804C47.1791 124.804 49.0038 124.181 50.3638 122.934C51.7238 121.687 52.4038 119.976 52.4038 117.8C52.4038 116.077 52.2111 114.717 51.8258 113.72C51.4405 112.723 50.7491 111.827 49.7518 111.034C49.2305 110.603 48.5618 110.286 47.7458 110.082C46.9525 109.878 46.0911 109.776 45.1618 109.776C43.7565 109.776 42.5438 110.195 41.5238 111.034C40.5038 111.85 39.7218 112.915 39.1778 114.23C38.6565 115.545 38.3958 116.916 38.3958 118.344ZM74.3885 108.892C74.3885 108.235 74.5358 107.668 74.8305 107.192C75.1478 106.693 75.6125 106.444 76.2245 106.444C76.7459 106.444 77.2105 106.546 77.6185 106.75C78.0265 106.954 78.2305 107.294 78.2305 107.77C78.2305 108.699 78.1852 110.003 78.0945 111.68C78.0039 113.312 77.9585 114.525 77.9585 115.318C77.9585 116.565 78.0039 118.231 78.0945 120.316C78.1852 122.311 78.2305 123.773 78.2305 124.702C78.2305 125.45 78.2192 126.005 78.1965 126.368C78.1965 126.731 77.9925 127.093 77.5845 127.456C77.1992 127.796 76.5985 127.966 75.7825 127.966C75.3518 127.966 74.9778 127.898 74.6605 127.762C74.3658 127.603 74.1618 127.433 74.0485 127.252C72.9832 125.96 71.4305 123.761 69.3905 120.656C67.1012 117.188 65.2312 114.536 63.7805 112.7C63.9618 114.332 64.0525 116.327 64.0525 118.684C64.0525 119.727 64.0298 121.087 63.9845 122.764C63.9618 124.419 63.9165 125.507 63.8485 126.028C63.7578 126.685 63.5538 127.195 63.2365 127.558C62.9418 127.898 62.4658 128.068 61.8085 128.068C61.3098 128.068 60.9358 127.932 60.6865 127.66C60.4598 127.365 60.3238 126.867 60.2785 126.164C60.2558 125.235 60.3125 123.841 60.4485 121.982C60.4712 121.687 60.5052 121.177 60.5505 120.452C60.5958 119.727 60.6185 119.081 60.6185 118.514C60.6185 116.95 60.5392 115.159 60.3805 113.142C60.2445 110.921 60.1765 109.277 60.1765 108.212C60.1765 107.668 60.3692 107.249 60.7545 106.954C61.1625 106.659 61.6272 106.512 62.1485 106.512C62.6018 106.512 63.0778 106.625 63.5765 106.852C65.5258 109.3 68.1665 112.949 71.4985 117.8L74.6945 122.696C74.7172 122.333 74.7285 121.823 74.7285 121.166C74.7285 120.01 74.7058 118.763 74.6605 117.426C74.6152 116.089 74.5812 115.182 74.5585 114.706C74.4452 112.507 74.3885 110.569 74.3885 108.892ZM93.4559 128.034C91.9599 128.034 90.5885 127.853 89.3419 127.49C88.0952 127.105 87.0752 126.549 86.2819 125.824C84.8312 124.532 83.8112 123.127 83.2219 121.608C82.6552 120.067 82.3719 118.106 82.3719 115.726C82.3719 115.227 82.4399 114.763 82.5759 114.332C82.7345 113.879 82.9385 113.38 83.1879 112.836C83.2559 112.677 83.3579 112.428 83.4939 112.088C83.6525 111.725 83.7545 111.397 83.7999 111.102C84.2305 110.309 84.9559 109.549 85.9759 108.824C87.0185 108.099 88.1405 107.521 89.3419 107.09C90.5432 106.637 91.5972 106.41 92.5039 106.41C96.8785 106.41 100.007 107.906 101.888 110.898C102.953 112.643 103.486 114.4 103.486 116.168C103.486 118.457 103.067 120.463 102.228 122.186C101.412 123.909 100.279 125.246 98.8279 126.198C97.9212 126.742 96.9919 127.184 96.0399 127.524C95.0879 127.864 94.2265 128.034 93.4559 128.034ZM85.9079 118.242C85.8852 119.489 86.1459 120.52 86.6899 121.336C87.2565 122.129 88.1405 123.002 89.3419 123.954C90.2485 124.294 90.8832 124.521 91.2459 124.634C91.6085 124.747 92.0052 124.804 92.4359 124.804C93.9092 124.804 95.2125 124.498 96.3459 123.886C97.4792 123.274 98.3519 122.435 98.9639 121.37C99.5985 120.305 99.9159 119.115 99.9159 117.8C99.9159 116.077 99.7232 114.717 99.3379 113.72C98.9525 112.723 98.2612 111.827 97.2639 111.034C96.7425 110.603 96.0739 110.286 95.2579 110.082C94.4645 109.878 93.6145 109.776 92.7079 109.776C90.5319 109.776 88.8432 110.547 87.6419 112.088C86.4632 113.607 85.8852 115.658 85.9079 118.242Z" fill="#005EFF" fill-opacity="0.5"/>
<path d="M104.355 55.4593V35.6894C104.355 32.1867 101.491 29.3239 97.9867 29.3239H96.3693C93.64 29.3239 91.315 31.0416 90.4052 33.4665C80.9705 29.2229 70.5922 27 60.2477 27C49.9031 27 39.5249 29.2229 30.0901 33.4665C29.1804 31.0416 26.8554 29.3239 24.126 29.3239H22.5086C19.0043 29.3239 16.1402 32.1867 16.1402 35.6894V55.6277L0.202173 88.196V88.2297C0.168477 88.297 0.134783 88.3644 0.134783 88.4317C0.134783 88.4317 0.134783 88.4654 0.101088 88.4654C0.0336966 88.6338 0 88.8022 0 88.9706C0 89.0043 0 89.038 0 89.038C0 89.0717 0 89.1053 0 89.139V106.888C0 108.101 0.977172 109.077 2.19021 109.077H9.03042V118.811C9.03042 120.023 10.0076 121 11.2206 121H18.4652C19.6782 121 20.6554 120.023 20.6554 118.811V109.077H99.9411V118.811C99.9411 120.023 100.918 121 102.131 121H109.376C110.589 121 111.566 120.023 111.566 118.811V109.077H118.406C119.619 109.077 120.596 108.101 120.596 106.888V89.2737C120.596 89.2401 120.596 89.1727 120.596 89.139C120.596 88.7349 120.495 88.3644 120.293 88.0276L104.355 55.4593ZM107.152 116.588H104.288V109.044H107.152V116.588ZM16.2413 116.588H13.3771V109.044H16.2413V116.588ZM20.4869 35.723C20.4869 34.6116 21.363 33.7359 22.475 33.7359H24.0923C25.2043 33.7359 26.0804 34.6116 26.0804 35.723V36.7671V51.3504C24.8336 51.923 23.7217 52.7986 22.8793 53.9437H20.4532V35.723H20.4869ZM94.3476 36.7671V35.723C94.3476 34.6116 95.2237 33.7359 96.3356 33.7359H97.953C99.065 33.7359 99.9411 34.6116 99.9411 35.723V53.9437H97.6161C96.7737 52.7986 95.6617 51.8893 94.3476 51.3167V36.7671ZM5.66086 86.9498L19.6782 58.3221H20.8576C20.5543 59.8377 20.8239 61.4543 21.7 62.8352C22.8456 64.6539 24.8336 65.7653 26.9902 65.7653H51.7227C53.8792 65.7653 55.8673 64.6539 57.0129 62.8352C57.8553 61.4543 58.1586 59.8714 57.8553 58.3221H62.7075C62.4042 59.8377 62.6738 61.4543 63.5499 62.8352C64.6955 64.6539 66.6835 65.7653 68.8401 65.7653H93.5726C95.7291 65.7653 97.7172 64.6539 98.8628 62.8352C99.7052 61.4543 100.008 59.8714 99.7052 58.3221H100.885L114.902 86.9498H5.66086ZM71.1314 55.0215H91.2476C92.5617 55.0215 93.8085 55.7961 94.3813 56.9749L95.2237 58.6926C95.628 59.5346 95.2911 60.2082 95.1226 60.4776C94.9541 60.747 94.4824 61.3533 93.5389 61.3533H68.8064C67.8966 61.3533 67.3912 60.747 67.2227 60.4776C67.0542 60.2082 66.7172 59.5009 67.1216 58.6926L67.964 56.9749C68.5705 55.7961 69.7835 55.0215 71.1314 55.0215ZM29.2815 55.0215H49.3977C50.7118 55.0215 51.9586 55.7961 52.5314 56.9749L53.3738 58.6926C53.7781 59.5346 53.4412 60.2082 53.2727 60.4776C53.1042 60.747 52.6325 61.3533 51.689 61.3533H26.9565C26.0467 61.3533 25.5412 60.747 25.3728 60.4776C25.2043 60.2082 24.8673 59.5009 25.2717 58.6926L26.1141 56.9749C26.7543 55.7961 27.9673 55.0215 29.2815 55.0215ZM89.9672 50.6431H71.0977C68.5705 50.6431 66.1781 51.8893 64.6955 53.9101H55.7662C54.3173 51.8893 51.9249 50.6431 49.364 50.6431H30.4271V38.1143C39.6934 33.7359 49.9368 31.412 60.1803 31.412C70.4238 31.412 80.6672 33.7359 89.9335 38.1143V50.6431H89.9672ZM4.34673 91.3282H116.182V104.699H109.342H102.098H18.4315H11.1869H4.34673V91.3282Z" fill="#005EFF"/>
</svg>
